<svg version="1.1" xmlns="http://www.w3.org/2000/svg" xmlns:xlink="http://www.w3.org/1999/xlink" width="93.59574" height="97.543" viewBox="0,0,93.59574,97.543"><g transform="translate(-193.49,-122.165)"><g data-paper-data="{&quot;isPaintingLayer&quot;:true}" fill-rule="nonzero" stroke="#000000" stroke-width="3" stroke-linejoin="miter" stroke-miterlimit="10" stroke-dasharray="" stroke-dashoffset="0" style="mix-blend-mode: normal"><path d="M285.58557,181.27466c0,13.82206 0.22589,24.62984 -15.54829,31.17798c-2.98282,1.23822 -6.08999,3.66512 -9.6493,3.91259c-3.57042,0.24824 -7.5948,-1.68436 -11.7493,-1.34082c-2.75089,0.22748 -5.63026,2.62581 -8.63868,2.62581c-4.2206,0 -8.14868,-0.25051 -11.79487,-0.72626c-4.15064,-0.54157 -7.1214,2.37208 -10.55713,1.28404c-2.27409,-0.72017 -5.20959,-5.29896 -7.18188,-6.2314c-14.77846,-6.9868 -15.47611,-19.94788 -15.47611,-33.69838c0,-8.83891 0.5044,-16.59323 4.66073,-22.63285c2.62622,-3.81619 6.71046,-6.9478 13.04675,-9.23585c4.18694,-1.51192 9.30755,-0.67964 14.74711,-1.35665c3.94917,-0.49151 7.91237,-2.70309 12.55541,-2.70309c3.78108,0 7.03246,2.46644 10.40696,2.82272c3.24134,0.34222 6.62149,-1.43893 9.48979,-0.79499c1.83781,0.41259 1.64427,2.35065 6.42504,3.69278c3.1838,0.8938 4.90453,-0.10971 7.52854,1.24617c13.20952,6.82561 11.73524,19.2997 11.73524,31.9582z" fill="#ff9a24" stroke-linecap="butt"/><path d="M213.40001,147.14818l-2.65823,64.52234" fill="none" stroke-linecap="round"/><path d="M227.85042,145.94686l0.13423,69.26997" fill="none" stroke-linecap="round"/><path d="M241.2128,142.24279l-1.59332,74.24871" fill="none" stroke-linecap="round"/><path d="M253.77493,145.29519l-0.29716,69.92165" fill="none" stroke-linecap="round"/><path d="M272.59761,149.57206l-3.82396,61.50214" fill="none" stroke-linecap="round"/><path d="M254.70025,145.28288c0,2.45785 -5.10582,4.45033 -11.40418,4.45033c-6.29835,0 -11.40418,-1.99248 -11.40418,-4.45033c0,-1.36336 2.52341,-11.89166 7.00649,-17.41188c3.59897,-4.43156 8.92426,-4.20402 11.72894,-4.20402c0.33455,0 -6.31738,6.28659 -4.72697,14.57015c0.84357,4.39366 8.79989,6.23916 8.79989,7.04575z" fill="#15963f" stroke-linecap="butt"/></g></g></svg>